<mxfile host="app.diagrams.net" agent="Mozilla/5.0 (Windows NT 10.0; Win64; x64; rv:144.0) Gecko/20100101 Firefox/144.0" version="28.2.7">
  <diagram name="Seite-1" id="KswrabDE0HAT1ewRJ_ug">
    <mxGraphModel dx="1818" dy="1828" grid="1" gridSize="10" guides="1" tooltips="1" connect="1" arrows="1" fold="1" page="1" pageScale="1" pageWidth="827" pageHeight="1169" math="0" shadow="0">
      <root>
        <mxCell id="0" />
        <mxCell id="1" parent="0" />
        <mxCell id="0TVYWUzJW_4-8FFfHiwb-2" value="" style="triangle;whiteSpace=wrap;html=1;rotation=-90;" vertex="1" parent="1">
          <mxGeometry x="146" y="-170.07" width="535.14" height="855" as="geometry" />
        </mxCell>
        <mxCell id="0TVYWUzJW_4-8FFfHiwb-3" value="&lt;div&gt;&lt;font style=&quot;font-size: 21px;&quot;&gt;domain:&lt;/font&gt;&lt;/div&gt;&lt;div&gt;&lt;font style=&quot;font-size: 21px;&quot;&gt;corp.at&lt;/font&gt;&lt;/div&gt;" style="text;html=1;whiteSpace=wrap;strokeColor=none;fillColor=none;align=center;verticalAlign=middle;rounded=0;" vertex="1" parent="1">
          <mxGeometry x="345.35" y="540" width="136.43" height="60" as="geometry" />
        </mxCell>
        <mxCell id="0TVYWUzJW_4-8FFfHiwb-4" value="" style="rounded=0;whiteSpace=wrap;html=1;" vertex="1" parent="1">
          <mxGeometry x="180" y="310" width="190" height="150" as="geometry" />
        </mxCell>
        <mxCell id="0TVYWUzJW_4-8FFfHiwb-5" value="&lt;font style=&quot;font-size: 19px;&quot;&gt;Site1&lt;/font&gt;" style="text;html=1;whiteSpace=wrap;strokeColor=none;fillColor=none;align=center;verticalAlign=middle;rounded=0;" vertex="1" parent="1">
          <mxGeometry x="245" y="470" width="60" height="30" as="geometry" />
        </mxCell>
        <mxCell id="0TVYWUzJW_4-8FFfHiwb-6" value="" style="rounded=0;whiteSpace=wrap;html=1;" vertex="1" parent="1">
          <mxGeometry x="470" y="310" width="180" height="150" as="geometry" />
        </mxCell>
        <mxCell id="0TVYWUzJW_4-8FFfHiwb-7" value="&lt;div&gt;&lt;font style=&quot;font-size: 19px;&quot;&gt;Site2&lt;/font&gt;&lt;/div&gt;" style="text;html=1;whiteSpace=wrap;strokeColor=none;fillColor=none;align=center;verticalAlign=middle;rounded=0;" vertex="1" parent="1">
          <mxGeometry x="530" y="470" width="60" height="30" as="geometry" />
        </mxCell>
        <mxCell id="0TVYWUzJW_4-8FFfHiwb-8" value="" style="ellipse;whiteSpace=wrap;html=1;aspect=fixed;" vertex="1" parent="1">
          <mxGeometry x="305" y="360" width="40" height="40" as="geometry" />
        </mxCell>
        <mxCell id="0TVYWUzJW_4-8FFfHiwb-9" value="" style="ellipse;whiteSpace=wrap;html=1;aspect=fixed;" vertex="1" parent="1">
          <mxGeometry x="500" y="360" width="40" height="40" as="geometry" />
        </mxCell>
        <mxCell id="0TVYWUzJW_4-8FFfHiwb-10" value="DC1-1" style="text;html=1;whiteSpace=wrap;strokeColor=none;fillColor=none;align=center;verticalAlign=middle;rounded=0;" vertex="1" parent="1">
          <mxGeometry x="295" y="410" width="60" height="30" as="geometry" />
        </mxCell>
        <mxCell id="0TVYWUzJW_4-8FFfHiwb-11" value="DC2-1" style="text;html=1;whiteSpace=wrap;strokeColor=none;fillColor=none;align=center;verticalAlign=middle;rounded=0;" vertex="1" parent="1">
          <mxGeometry x="490" y="410" width="60" height="30" as="geometry" />
        </mxCell>
        <mxCell id="0TVYWUzJW_4-8FFfHiwb-13" value="" style="ellipse;shape=cloud;whiteSpace=wrap;html=1;" vertex="1" parent="1">
          <mxGeometry x="326.5" y="-200" width="175" height="130" as="geometry" />
        </mxCell>
        <mxCell id="0TVYWUzJW_4-8FFfHiwb-12" value="" style="ellipse;whiteSpace=wrap;html=1;aspect=fixed;" vertex="1" parent="1">
          <mxGeometry x="384" y="-110" width="60" height="60" as="geometry" />
        </mxCell>
        <mxCell id="0TVYWUzJW_4-8FFfHiwb-14" value="INTERNET" style="text;html=1;whiteSpace=wrap;strokeColor=none;fillColor=none;align=center;verticalAlign=middle;rounded=0;" vertex="1" parent="1">
          <mxGeometry x="386.5" y="-170.07" width="60" height="30" as="geometry" />
        </mxCell>
        <mxCell id="0TVYWUzJW_4-8FFfHiwb-18" value="" style="endArrow=none;html=1;rounded=0;exitX=0.5;exitY=0;exitDx=0;exitDy=0;entryX=0.5;entryY=1;entryDx=0;entryDy=0;" edge="1" parent="1" source="0TVYWUzJW_4-8FFfHiwb-8" target="0TVYWUzJW_4-8FFfHiwb-12">
          <mxGeometry width="50" height="50" relative="1" as="geometry">
            <mxPoint x="347" y="190" as="sourcePoint" />
            <mxPoint x="421" y="-50" as="targetPoint" />
          </mxGeometry>
        </mxCell>
        <mxCell id="0TVYWUzJW_4-8FFfHiwb-19" value="&lt;div&gt;&lt;font style=&quot;font-size: 18px;&quot;&gt;Router&lt;/font&gt;&lt;/div&gt;" style="text;html=1;whiteSpace=wrap;strokeColor=none;fillColor=none;align=center;verticalAlign=middle;rounded=0;" vertex="1" parent="1">
          <mxGeometry x="326.5" y="-60" width="60" height="30" as="geometry" />
        </mxCell>
        <mxCell id="0TVYWUzJW_4-8FFfHiwb-21" value="" style="endArrow=none;html=1;rounded=0;exitX=0.5;exitY=0;exitDx=0;exitDy=0;entryX=0.5;entryY=1;entryDx=0;entryDy=0;" edge="1" parent="1" source="0TVYWUzJW_4-8FFfHiwb-9" target="0TVYWUzJW_4-8FFfHiwb-12">
          <mxGeometry width="50" height="50" relative="1" as="geometry">
            <mxPoint x="700" y="556" as="sourcePoint" />
            <mxPoint x="420" y="-50" as="targetPoint" />
          </mxGeometry>
        </mxCell>
        <mxCell id="0TVYWUzJW_4-8FFfHiwb-22" value="Lan_1-1" style="text;html=1;whiteSpace=wrap;strokeColor=none;fillColor=none;align=center;verticalAlign=middle;rounded=0;" vertex="1" parent="1">
          <mxGeometry x="305" y="150" width="60" height="30" as="geometry" />
        </mxCell>
        <mxCell id="0TVYWUzJW_4-8FFfHiwb-23" value="Lan_2-1" style="text;html=1;whiteSpace=wrap;strokeColor=none;fillColor=none;align=center;verticalAlign=middle;rounded=0;" vertex="1" parent="1">
          <mxGeometry x="470" y="150" width="60" height="30" as="geometry" />
        </mxCell>
      </root>
    </mxGraphModel>
  </diagram>
</mxfile>
